<?xml version="1.0" encoding="UTF-8"?>
<svg xmlns="http://www.w3.org/2000/svg" viewBox="0 0 64 64" fill="none">
  <rect width="64" height="64" rx="14" fill="#451a03"/>
  <path d="M32 14c-6 0-10.8 4.8-10.8 10.8v6.8c0 2-.8 4-2.2 5.4l-2 2c-.8.8-.2 2 .8 2h28.4c1 0 1.6-1.2.8-2l-2-2c-1.4-1.4-2.2-3.4-2.2-5.4v-6.8C42.8 18.8 38 14 32 14Z" fill="#f59e0b"/>
  <path d="M28 44.4c0 2.2 1.8 4 4 4s4-1.8 4-4h-8Z" fill="#f59e0b"/>
  <circle cx="46" cy="18" r="5" fill="#fde68a"/>
  <circle cx="46" cy="18" r="5" stroke="#451a03" stroke-width="2" fill="none"/>
</svg>
